<svg xmlns="http://www.w3.org/2000/svg" viewBox="0 0 96 96" role="img" aria-label="Mika avatar">
  <rect width="96" height="96" rx="24" fill="#2dd4bf"/>
  <circle cx="48" cy="50" r="31" fill="#ffe4d6"/>
  <path d="M20 43c2-20 17-32 37-29 13 2 22 12 23 29-9-8-18-11-28-10-8 1-17 4-32 10z" fill="#f472b6"/>
  <path d="M21 43c13-10 23-17 36-15-8 5-15 12-20 22z" fill="#fb7185"/>
  <circle cx="36" cy="54" r="4" fill="#0f172a"/>
  <circle cx="60" cy="54" r="4" fill="#0f172a"/>
  <path d="M39 67c5 5 13 5 18 0" fill="none" stroke="#0f172a" stroke-width="4" stroke-linecap="round"/>
  <path d="M70 20l3 7 7 3-7 3-3 7-3-7-7-3 7-3z" fill="#fef08a"/>
</svg>
